# xmcd
#
# Track frame offsets:
#	150
#	20846
#	40371
#	61966
#	85600
#	103177
#	120676
#	139307
#	159692
#	182399
#	200245
#	221264
#	242241
#	259906
#	283651
#
# Disc length: 4059 seconds
#
# Revision: 0
# Processed by: cddbd v1.5.2PL0 Copyright (c) Steve Scherf et al.
# Submitted via: EasyCDDAExtractor 2010.6.0.0
#
DISCID=e30fd90f
DTITLE=Various Artist - 2011 - Lo Máximo Del Vallenato Joven - 2
DYEAR=2001
DGENRE=
TTITLE0=Jorge Celedón and Jimmy Zambrano - Cuatro Rosas
TTITLE1=Silvestre Dangond and Juancho De La Espriella - Calidad De Vida
TTITLE2=Pipe Pelaéz and Zabaleta - Cuando Vuelvas
TTITLE3=Jorge Celedón and Jimmy Zambrano - Por Tu Primer Beso
TTITLE4=Silvestre Dangond and Juancho De La Espriella - Loco, Loco
TTITLE5=Gusi and Beto - La Mandarina
TTITLE6=Pipe Pelaéz and Zabaleta - Pide Lo Que Quieras
TTITLE7=Jorge Celedón and Jimmy Zambrano - Por Gustarte
TTITLE8=Silvestre Dangond and Juancho De La Espriella - Habla Con Ella
TTITLE9=Pipe Pelaéz and Zabaleta - Amapola
TTITLE10=Jorge Celedón and Jimmy Zambrano - No Merezco Tanto Silencio
TTITLE11=Silvestre Dangond and Juancho De La Espriella - Pasando Penas
TTITLE12=Pipe Pelaéz and Zabaleta - Otro Cuento
TTITLE13=Jorge Celedón and Jimmy Zambrano - Por Estar Adorándote
TTITLE14=Silvestre Dangond and Juancho De La Espriella - El Pasado, Es Pasado
EXTD=
EXTT0=
EXTT1=
EXTT2=
EXTT3=
EXTT4=
EXTT5=
EXTT6=
EXTT7=
EXTT8=
EXTT9=
EXTT10=
EXTT11=
EXTT12=
EXTT13=
EXTT14=
PLAYORDER=
